<svg xmlns="http://www.w3.org/2000/svg" xmlns:xlink="http://www.w3.org/1999/xlink" contentStyleType="text/css" height="409px" preserveAspectRatio="none" style="width:597px;height:409px;background:#FFFFFF;" version="1.1" viewBox="0 0 597 409" width="597px" zoomAndPan="magnify"><defs/><g><!--cluster Phpolar--><g id="cluster_Phpolar"><path d="M8.5,63 L70.5176,63 A3.75,3.75 0 0 1 73.0176,65.5 L80.0176,85.2969 L587.5,85.2969 A2.5,2.5 0 0 1 590,87.7969 L590,344.5 A2.5,2.5 0 0 1 587.5,347 L8.5,347 A2.5,2.5 0 0 1 6,344.5 L6,65.5 A2.5,2.5 0 0 1 8.5,63 " fill="none" style="stroke:#000000;stroke-width:1.5;"/><line style="stroke:#000000;stroke-width:1.5;" x1="6" x2="80.0176" y1="85.2969" y2="85.2969"/><text fill="#000000" font-family="sans-serif" font-size="14" font-weight="bold" lengthAdjust="spacing" textLength="61.0176" x="10" y="77.9951">Phpolar</text></g><!--cluster CsvFileStorage--><g id="cluster_CsvFileStorage"><path d="M282.5,106 L402.1514,106 A3.75,3.75 0 0 1 404.6514,108.5 L411.6514,128.2969 L563.5,128.2969 A2.5,2.5 0 0 1 566,130.7969 L566,320.5 A2.5,2.5 0 0 1 563.5,323 L282.5,323 A2.5,2.5 0 0 1 280,320.5 L280,108.5 A2.5,2.5 0 0 1 282.5,106 " fill="none" style="stroke:#000000;stroke-width:1.5;"/><line style="stroke:#000000;stroke-width:1.5;" x1="280" x2="411.6514" y1="128.2969" y2="128.2969"/><text fill="#000000" font-family="sans-serif" font-size="14" font-weight="bold" lengthAdjust="spacing" textLength="118.6514" x="284" y="120.9951">CsvFileStorage</text></g><!--cluster Phpolar--><g id="cluster_Phpolar"><path d="M32.5,165 L94.5176,165 A3.75,3.75 0 0 1 97.0176,167.5 L104.0176,187.2969 L253.5,187.2969 A2.5,2.5 0 0 1 256,189.7969 L256,320.5 A2.5,2.5 0 0 1 253.5,323 L32.5,323 A2.5,2.5 0 0 1 30,320.5 L30,167.5 A2.5,2.5 0 0 1 32.5,165 " fill="none" style="stroke:#000000;stroke-width:1.5;"/><line style="stroke:#000000;stroke-width:1.5;" x1="30" x2="104.0176" y1="187.2969" y2="187.2969"/><text fill="#000000" font-family="sans-serif" font-size="14" font-weight="bold" lengthAdjust="spacing" textLength="61.0176" x="34" y="179.9951">Phpolar</text></g><!--cluster Storage--><g id="cluster_Storage"><path d="M56.5,208 L119.7617,208 A3.75,3.75 0 0 1 122.2617,210.5 L129.2617,230.2969 L229.5,230.2969 A2.5,2.5 0 0 1 232,232.7969 L232,296.5 A2.5,2.5 0 0 1 229.5,299 L56.5,299 A2.5,2.5 0 0 1 54,296.5 L54,210.5 A2.5,2.5 0 0 1 56.5,208 " fill="none" style="stroke:#000000;stroke-width:1.5;"/><line style="stroke:#000000;stroke-width:1.5;" x1="54" x2="129.2617" y1="230.2969" y2="230.2969"/><text fill="#000000" font-family="sans-serif" font-size="14" font-weight="bold" lengthAdjust="spacing" textLength="62.2617" x="58" y="222.9951">Storage</text></g><!--class AmbiguousUnionTypeException__class--><g id="elem_AmbiguousUnionTypeException__class"><rect codeLine="17" fill="#F1F1F1" height="32" id="AmbiguousUnionTypeException__class" rx="2.5" ry="2.5" style="stroke:#181818;stroke-width:0.5;" width="254.4141" x="296" y="208"/><ellipse cx="311" cy="224" fill="#ADD1B2" rx="11" ry="11" style="stroke:#181818;stroke-width:1;"/><path d="M313.9688,229.6406 Q313.3906,229.9375 312.75,230.0781 Q312.1094,230.2344 311.4063,230.2344 Q308.9063,230.2344 307.5781,228.5938 Q306.2656,226.9375 306.2656,223.8125 Q306.2656,220.6875 307.5781,219.0313 Q308.9063,217.375 311.4063,217.375 Q312.1094,217.375 312.75,217.5313 Q313.4063,217.6875 313.9688,217.9844 L313.9688,220.7031 Q313.3438,220.125 312.75,219.8594 Q312.1563,219.5781 311.5313,219.5781 Q310.1875,219.5781 309.5,220.6563 Q308.8125,221.7188 308.8125,223.8125 Q308.8125,225.9063 309.5,226.9844 Q310.1875,228.0469 311.5313,228.0469 Q312.1563,228.0469 312.75,227.7813 Q313.3438,227.5 313.9688,226.9219 L313.9688,229.6406 Z " fill="#000000"/><text fill="#000000" font-family="sans-serif" font-size="14" lengthAdjust="spacing" textLength="222.4141" x="325" y="228.8467">AmbiguousUnionTypeException</text></g><!--class CsvFileStorage__class--><g id="elem_CsvFileStorage__class"><rect codeLine="27" fill="#F1F1F1" height="32" id="CsvFileStorage__class" rx="2.5" ry="2.5" style="stroke:#181818;stroke-width:0.5;" width="136.5762" x="354.5" y="275"/><ellipse cx="369.5" cy="291" fill="#ADD1B2" rx="11" ry="11" style="stroke:#181818;stroke-width:1;"/><path d="M372.4688,296.6406 Q371.8906,296.9375 371.25,297.0781 Q370.6094,297.2344 369.9063,297.2344 Q367.4063,297.2344 366.0781,295.5938 Q364.7656,293.9375 364.7656,290.8125 Q364.7656,287.6875 366.0781,286.0313 Q367.4063,284.375 369.9063,284.375 Q370.6094,284.375 371.25,284.5313 Q371.9063,284.6875 372.4688,284.9844 L372.4688,287.7031 Q371.8438,287.125 371.25,286.8594 Q370.6563,286.5781 370.0313,286.5781 Q368.6875,286.5781 368,287.6563 Q367.3125,288.7188 367.3125,290.8125 Q367.3125,292.9063 368,293.9844 Q368.6875,295.0469 370.0313,295.0469 Q370.6563,295.0469 371.25,294.7813 Q371.8438,294.5 372.4688,293.9219 L372.4688,296.6406 Z " fill="#000000"/><text fill="#000000" font-family="sans-serif" font-size="14" lengthAdjust="spacing" textLength="104.5762" x="383.5" y="295.8467">CsvFileStorage</text></g><!--class FileNotExistsException__class--><g id="elem_FileNotExistsException__class"><rect codeLine="31" fill="#F1F1F1" height="32" id="FileNotExistsException__class" rx="2.5" ry="2.5" style="stroke:#181818;stroke-width:0.5;" width="191.2158" x="327.5" y="141"/><ellipse cx="342.5" cy="157" fill="#ADD1B2" rx="11" ry="11" style="stroke:#181818;stroke-width:1;"/><path d="M345.4688,162.6406 Q344.8906,162.9375 344.25,163.0781 Q343.6094,163.2344 342.9063,163.2344 Q340.4063,163.2344 339.0781,161.5938 Q337.7656,159.9375 337.7656,156.8125 Q337.7656,153.6875 339.0781,152.0313 Q340.4063,150.375 342.9063,150.375 Q343.6094,150.375 344.25,150.5313 Q344.9063,150.6875 345.4688,150.9844 L345.4688,153.7031 Q344.8438,153.125 344.25,152.8594 Q343.6563,152.5781 343.0313,152.5781 Q341.6875,152.5781 341,153.6563 Q340.3125,154.7188 340.3125,156.8125 Q340.3125,158.9063 341,159.9844 Q341.6875,161.0469 343.0313,161.0469 Q343.6563,161.0469 344.25,160.7813 Q344.8438,160.5 345.4688,159.9219 L345.4688,162.6406 Z " fill="#000000"/><text fill="#000000" font-family="sans-serif" font-size="14" lengthAdjust="spacing" textLength="159.2158" x="356.5" y="161.8467">FileNotExistsException</text></g><!--class AbstractStorage__class--><g id="elem_AbstractStorage__class"><rect codeLine="21" fill="#F1F1F1" height="40.2656" id="AbstractStorage__class" rx="2.5" ry="2.5" style="stroke:#181818;stroke-width:0.5;" width="145.5449" x="70" y="243"/><ellipse cx="85" cy="263.1328" fill="#ADD1B2" rx="11" ry="11" style="stroke:#181818;stroke-width:1;"/><path d="M87.9688,268.7734 Q87.3906,269.0703 86.75,269.2109 Q86.1094,269.3672 85.4063,269.3672 Q82.9063,269.3672 81.5781,267.7266 Q80.2656,266.0703 80.2656,262.9453 Q80.2656,259.8203 81.5781,258.1641 Q82.9063,256.5078 85.4063,256.5078 Q86.1094,256.5078 86.75,256.6641 Q87.4063,256.8203 87.9688,257.1172 L87.9688,259.8359 Q87.3438,259.2578 86.75,258.9922 Q86.1563,258.7109 85.5313,258.7109 Q84.1875,258.7109 83.5,259.7891 Q82.8125,260.8516 82.8125,262.9453 Q82.8125,265.0391 83.5,266.1172 Q84.1875,267.1797 85.5313,267.1797 Q86.1563,267.1797 86.75,266.9141 Q87.3438,266.6328 87.9688,266.0547 L87.9688,268.7734 Z " fill="#000000"/><text fill="#000000" font-family="sans-serif" font-size="12" font-style="italic" lengthAdjust="spacing" textLength="64.4824" x="123.5313" y="259.1387">&#171;external&#187;</text><text fill="#000000" font-family="sans-serif" font-size="14" lengthAdjust="spacing" textLength="113.5449" x="99" y="274.9639">AbstractStorage</text></g><!--class RuntimeException__class--><g id="elem_RuntimeException__class"><rect codeLine="14" fill="#F1F1F1" height="40.2656" id="RuntimeException__class" rx="2.5" ry="2.5" style="stroke:#181818;stroke-width:0.5;" width="160.249" x="63" y="7"/><ellipse cx="78" cy="27.1328" fill="#ADD1B2" rx="11" ry="11" style="stroke:#181818;stroke-width:1;"/><path d="M80.9688,32.7734 Q80.3906,33.0703 79.75,33.2109 Q79.1094,33.3672 78.4063,33.3672 Q75.9063,33.3672 74.5781,31.7266 Q73.2656,30.0703 73.2656,26.9453 Q73.2656,23.8203 74.5781,22.1641 Q75.9063,20.5078 78.4063,20.5078 Q79.1094,20.5078 79.75,20.6641 Q80.4063,20.8203 80.9688,21.1172 L80.9688,23.8359 Q80.3438,23.2578 79.75,22.9922 Q79.1563,22.7109 78.5313,22.7109 Q77.1875,22.7109 76.5,23.7891 Q75.8125,24.8516 75.8125,26.9453 Q75.8125,29.0391 76.5,30.1172 Q77.1875,31.1797 78.5313,31.1797 Q79.1563,31.1797 79.75,30.9141 Q80.3438,30.6328 80.9688,30.0547 L80.9688,32.7734 Z " fill="#000000"/><text fill="#000000" font-family="sans-serif" font-size="12" font-style="italic" lengthAdjust="spacing" textLength="64.4824" x="123.8833" y="23.1387">&#171;external&#187;</text><text fill="#000000" font-family="sans-serif" font-size="14" lengthAdjust="spacing" textLength="128.249" x="92" y="38.9639">RuntimeException</text></g><!--class Countable__class--><g id="elem_Countable__class"><rect codeLine="24" fill="#F1F1F1" height="40.2656" id="Countable__class" rx="2.5" ry="2.5" style="stroke:#181818;stroke-width:0.5;" width="103.5449" x="91" y="363"/><ellipse cx="106" cy="383.1328" fill="#B4A7E5" rx="11" ry="11" style="stroke:#181818;stroke-width:1;"/><path d="M101.9219,378.8984 L101.9219,376.7422 L109.3125,376.7422 L109.3125,378.8984 L106.8438,378.8984 L106.8438,386.9766 L109.3125,386.9766 L109.3125,389.1328 L101.9219,389.1328 L101.9219,386.9766 L104.3906,386.9766 L104.3906,378.8984 L101.9219,378.8984 Z " fill="#000000"/><text fill="#000000" font-family="sans-serif" font-size="12" font-style="italic" lengthAdjust="spacing" textLength="64.4824" x="123.5313" y="379.1387">&#171;external&#187;</text><text fill="#000000" font-family="sans-serif" font-size="14" font-style="italic" lengthAdjust="spacing" textLength="71.5449" x="120" y="394.9639">Countable</text></g><!--reverse link RuntimeException__class to AmbiguousUnionTypeException__class--><g id="link_RuntimeException__class_AmbiguousUnionTypeException__class"><path d="M219,65.34 C219,115.67 219,224 219,224 C219,224 254.47,224 295.83,224 " fill="none" id="RuntimeException__class-backto-AmbiguousUnionTypeException__class" style="stroke:#516F42;stroke-width:1;"/><polygon fill="none" points="219,47.34,213,65.34,225,65.34,219,47.34" style="stroke:#516F42;stroke-width:1;"/></g><!--reverse link AbstractStorage__class to CsvFileStorage__class--><g id="link_AbstractStorage__class_CsvFileStorage__class"><path d="M234.2,279 C276.82,279 312.22,279 354.08,279 " fill="none" id="AbstractStorage__class-backto-CsvFileStorage__class" style="stroke:#516F42;stroke-width:1;"/><polygon fill="none" points="216.2,279,234.2,285,234.2,273,216.2,279" style="stroke:#516F42;stroke-width:1;"/></g><!--reverse link Countable__class to CsvFileStorage__class--><g id="link_Countable__class_CsvFileStorage__class"><path d="M143,344.59 C143,318.59 143,295 143,295 C143,295 271.24,295 354.15,295 " fill="none" id="Countable__class-backto-CsvFileStorage__class" style="stroke:#516F42;stroke-width:1;stroke-dasharray:7.0,7.0;"/><polygon fill="none" points="143,362.59,149,344.59,137,344.59,143,362.59" style="stroke:#516F42;stroke-width:1;"/></g><!--reverse link RuntimeException__class to FileNotExistsException__class--><g id="link_RuntimeException__class_FileNotExistsException__class"><path d="M221,65.03 C221,101.49 221,157 221,157 C221,157 275.11,157 327.32,157 " fill="none" id="RuntimeException__class-backto-FileNotExistsException__class" style="stroke:#516F42;stroke-width:1;"/><polygon fill="none" points="221,47.03,215,65.03,227,65.03,221,47.03" style="stroke:#516F42;stroke-width:1;"/></g><!--SRC=[hLBBJiCm4BpxArRb2q30gQfKIZaYHE4MgNAIJMBLZyYxwKDL_ns7f8L0KbK8d-ATzSpiP060LigMqai3K-_TPkQqyt1rTtsVtTu8-8xBXDLQyUx1-HJz9OqoMUNULJPjcxFFqz_ygAHnDhsO_DX_YGOLCdKRPNF8f2OKOXZwGhIooBiImNakd2XKYe2cv1qOD35w4Xep1dRWLLumfCfZyEQi86ImqY2LCi45rdGSh4MH48cMH31whImhW_DjWcNzP0IIu6TnkMownsF0BQEtKiDaiXS7SIA7bw9qMleecj7wIMbS126P8-ph001QkQc9LLwvYjvju7qBGtMLp-174_3fmQOKnXWosgeU-XsUFheUZnPZOX_-RGisjhgreJoEcig6ObPhZcPX8LZ6kk4vtVulqIxOg7HAVRaDHX550wE2CgL6WvRhzx_cE9ltMVyryknulbN4r5s6VkYFU_01]--></g></svg>