<svg xmlns="http://www.w3.org/2000/svg" xmlns:xlink="http://www.w3.org/1999/xlink" contentStyleType="text/css" data-diagram-type="CLASS" height="514px" preserveAspectRatio="none" style="width:496px;height:514px;background:#FFFFFF;" version="1.1" viewBox="0 0 496 514" width="496px" zoomAndPan="magnify"><defs/><g><!--cluster Phpolar--><g id="cluster_Phpolar"><path d="M16.5,60 L78.5176,60 A3.75,3.75 0 0 1 81.0176,62.5 L88.0176,82.2969 L486.5,82.2969 A2.5,2.5 0 0 1 489,84.7969 L489,457.5 A2.5,2.5 0 0 1 486.5,460 L16.5,460 A2.5,2.5 0 0 1 14,457.5 L14,62.5 A2.5,2.5 0 0 1 16.5,60 " fill="transparent" style="stroke:#000000;stroke-width:1.5;"/><line style="stroke:#000000;stroke-width:1.5;" x1="14" x2="88.0176" y1="82.2969" y2="82.2969"/><text fill="#000000" font-family="sans-serif" font-size="14" font-weight="bold" lengthAdjust="spacing" textLength="61.0176" x="18" y="74.9951">Phpolar</text></g><!--cluster CsvFileStorage--><g id="cluster_CsvFileStorage"><path d="M213.5,87 L333.1514,87 A3.75,3.75 0 0 1 335.6514,89.5 L342.6514,109.2969 L478.5,109.2969 A2.5,2.5 0 0 1 481,111.7969 L481,301.5 A2.5,2.5 0 0 1 478.5,304 L213.5,304 A2.5,2.5 0 0 1 211,301.5 L211,89.5 A2.5,2.5 0 0 1 213.5,87 " fill="transparent" style="stroke:#000000;stroke-width:1.5;"/><line style="stroke:#000000;stroke-width:1.5;" x1="211" x2="342.6514" y1="109.2969" y2="109.2969"/><text fill="#000000" font-family="sans-serif" font-size="14" font-weight="bold" lengthAdjust="spacing" textLength="118.6514" x="215" y="101.9951">CsvFileStorage</text></g><!--cluster Storage--><g id="cluster_Storage"><path d="M24.5,87 L87.7617,87 A3.75,3.75 0 0 1 90.2617,89.5 L97.2617,109.2969 L181.5,109.2969 A2.5,2.5 0 0 1 184,111.7969 L184,449.5 A2.5,2.5 0 0 1 181.5,452 L24.5,452 A2.5,2.5 0 0 1 22,449.5 L22,89.5 A2.5,2.5 0 0 1 24.5,87 " fill="transparent" style="stroke:#000000;stroke-width:1.5;"/><line style="stroke:#000000;stroke-width:1.5;" x1="22" x2="97.2617" y1="109.2969" y2="109.2969"/><text fill="#000000" font-family="sans-serif" font-size="14" font-weight="bold" lengthAdjust="spacing" textLength="62.2617" x="26" y="101.9951">Storage</text></g><!--class RuntimeException__class--><g id="elem_RuntimeException__class"><rect codeLine="14" fill="#F1F1F1" height="40.2656" id="RuntimeException__class" rx="2.5" ry="2.5" style="stroke:#181818;stroke-width:0.5;" width="160.249" x="23" y="12"/><ellipse cx="38" cy="32.1328" fill="#ADD1B2" rx="11" ry="11" style="stroke:#181818;stroke-width:1;"/><path d="M40.9688,37.7734 Q40.3906,38.0703 39.75,38.2109 Q39.1094,38.3672 38.4063,38.3672 Q35.9063,38.3672 34.5781,36.7266 Q33.2656,35.0703 33.2656,31.9453 Q33.2656,28.8203 34.5781,27.1641 Q35.9063,25.5078 38.4063,25.5078 Q39.1094,25.5078 39.75,25.6641 Q40.4063,25.8203 40.9688,26.1172 L40.9688,28.8359 Q40.3438,28.2578 39.75,27.9922 Q39.1563,27.7109 38.5313,27.7109 Q37.1875,27.7109 36.5,28.7891 Q35.8125,29.8516 35.8125,31.9453 Q35.8125,34.0391 36.5,35.1172 Q37.1875,36.1797 38.5313,36.1797 Q39.1563,36.1797 39.75,35.9141 Q40.3438,35.6328 40.9688,35.0547 L40.9688,37.7734 Z " fill="#000000"/><text fill="#000000" font-family="sans-serif" font-size="12" font-style="italic" lengthAdjust="spacing" textLength="64.4824" x="83.8833" y="28.1387">&#171;external&#187;</text><text fill="#000000" font-family="sans-serif" font-size="14" lengthAdjust="spacing" textLength="128.249" x="52" y="43.9639">RuntimeException</text></g><!--class Countable__class--><g id="elem_Countable__class"><rect codeLine="24" fill="#F1F1F1" height="40.2656" id="Countable__class" rx="2.5" ry="2.5" style="stroke:#181818;stroke-width:0.5;" width="103.5449" x="51" y="468"/><ellipse cx="66" cy="488.1328" fill="#B4A7E5" rx="11" ry="11" style="stroke:#181818;stroke-width:1;"/><path d="M61.9219,483.8984 L61.9219,481.7422 L69.3125,481.7422 L69.3125,483.8984 L66.8438,483.8984 L66.8438,491.9766 L69.3125,491.9766 L69.3125,494.1328 L61.9219,494.1328 L61.9219,491.9766 L64.3906,491.9766 L64.3906,483.8984 L61.9219,483.8984 Z " fill="#000000"/><text fill="#000000" font-family="sans-serif" font-size="12" font-style="italic" lengthAdjust="spacing" textLength="64.4824" x="83.5313" y="484.1387">&#171;external&#187;</text><text fill="#000000" font-family="sans-serif" font-size="14" font-style="italic" lengthAdjust="spacing" textLength="71.5449" x="80" y="499.9639">Countable</text></g><!--class AmbiguousUnionTypeException__class--><g id="elem_AmbiguousUnionTypeException__class"><rect codeLine="17" fill="#F1F1F1" height="32" id="AmbiguousUnionTypeException__class" rx="2.5" ry="2.5" style="stroke:#181818;stroke-width:0.5;" width="254.4141" x="219" y="114"/><ellipse cx="234" cy="130" fill="#ADD1B2" rx="11" ry="11" style="stroke:#181818;stroke-width:1;"/><path d="M236.9688,135.6406 Q236.3906,135.9375 235.75,136.0781 Q235.1094,136.2344 234.4063,136.2344 Q231.9063,136.2344 230.5781,134.5938 Q229.2656,132.9375 229.2656,129.8125 Q229.2656,126.6875 230.5781,125.0313 Q231.9063,123.375 234.4063,123.375 Q235.1094,123.375 235.75,123.5313 Q236.4063,123.6875 236.9688,123.9844 L236.9688,126.7031 Q236.3438,126.125 235.75,125.8594 Q235.1563,125.5781 234.5313,125.5781 Q233.1875,125.5781 232.5,126.6563 Q231.8125,127.7188 231.8125,129.8125 Q231.8125,131.9063 232.5,132.9844 Q233.1875,134.0469 234.5313,134.0469 Q235.1563,134.0469 235.75,133.7813 Q236.3438,133.5 236.9688,132.9219 L236.9688,135.6406 Z " fill="#000000"/><text fill="#000000" font-family="sans-serif" font-size="14" lengthAdjust="spacing" textLength="222.4141" x="248" y="134.8467">AmbiguousUnionTypeException</text></g><!--class CsvFileStorage__class--><g id="elem_CsvFileStorage__class"><rect codeLine="39" fill="#F1F1F1" height="32" id="CsvFileStorage__class" rx="2.5" ry="2.5" style="stroke:#181818;stroke-width:0.5;" width="136.5762" x="277.5" y="264"/><ellipse cx="292.5" cy="280" fill="#ADD1B2" rx="11" ry="11" style="stroke:#181818;stroke-width:1;"/><path d="M295.4688,285.6406 Q294.8906,285.9375 294.25,286.0781 Q293.6094,286.2344 292.9063,286.2344 Q290.4063,286.2344 289.0781,284.5938 Q287.7656,282.9375 287.7656,279.8125 Q287.7656,276.6875 289.0781,275.0313 Q290.4063,273.375 292.9063,273.375 Q293.6094,273.375 294.25,273.5313 Q294.9063,273.6875 295.4688,273.9844 L295.4688,276.7031 Q294.8438,276.125 294.25,275.8594 Q293.6563,275.5781 293.0313,275.5781 Q291.6875,275.5781 291,276.6563 Q290.3125,277.7188 290.3125,279.8125 Q290.3125,281.9063 291,282.9844 Q291.6875,284.0469 293.0313,284.0469 Q293.6563,284.0469 294.25,283.7813 Q294.8438,283.5 295.4688,282.9219 L295.4688,285.6406 Z " fill="#000000"/><text fill="#000000" font-family="sans-serif" font-size="14" lengthAdjust="spacing" textLength="104.5762" x="306.5" y="284.8467">CsvFileStorage</text></g><!--class CsvFileStorageLifeCycleHooks__class--><g id="elem_CsvFileStorageLifeCycleHooks__class"><rect codeLine="51" fill="#F1F1F1" height="32" id="CsvFileStorageLifeCycleHooks__class" rx="2.5" ry="2.5" style="stroke:#181818;stroke-width:0.5;" width="243.1279" x="224.5" y="214"/><ellipse cx="239.5" cy="230" fill="#ADD1B2" rx="11" ry="11" style="stroke:#181818;stroke-width:1;"/><path d="M242.4688,235.6406 Q241.8906,235.9375 241.25,236.0781 Q240.6094,236.2344 239.9063,236.2344 Q237.4063,236.2344 236.0781,234.5938 Q234.7656,232.9375 234.7656,229.8125 Q234.7656,226.6875 236.0781,225.0313 Q237.4063,223.375 239.9063,223.375 Q240.6094,223.375 241.25,223.5313 Q241.9063,223.6875 242.4688,223.9844 L242.4688,226.7031 Q241.8438,226.125 241.25,225.8594 Q240.6563,225.5781 240.0313,225.5781 Q238.6875,225.5781 238,226.6563 Q237.3125,227.7188 237.3125,229.8125 Q237.3125,231.9063 238,232.9844 Q238.6875,234.0469 240.0313,234.0469 Q240.6563,234.0469 241.25,233.7813 Q241.8438,233.5 242.4688,232.9219 L242.4688,235.6406 Z " fill="#000000"/><text fill="#000000" font-family="sans-serif" font-size="14" lengthAdjust="spacing" textLength="211.1279" x="253.5" y="234.8467">CsvFileStorageLifeCycleHooks</text></g><!--class FileNotExistsException__class--><g id="elem_FileNotExistsException__class"><rect codeLine="55" fill="#F1F1F1" height="32" id="FileNotExistsException__class" rx="2.5" ry="2.5" style="stroke:#181818;stroke-width:0.5;" width="191.2158" x="250.5" y="164"/><ellipse cx="265.5" cy="180" fill="#ADD1B2" rx="11" ry="11" style="stroke:#181818;stroke-width:1;"/><path d="M268.4688,185.6406 Q267.8906,185.9375 267.25,186.0781 Q266.6094,186.2344 265.9063,186.2344 Q263.4063,186.2344 262.0781,184.5938 Q260.7656,182.9375 260.7656,179.8125 Q260.7656,176.6875 262.0781,175.0313 Q263.4063,173.375 265.9063,173.375 Q266.6094,173.375 267.25,173.5313 Q267.9063,173.6875 268.4688,173.9844 L268.4688,176.7031 Q267.8438,176.125 267.25,175.8594 Q266.6563,175.5781 266.0313,175.5781 Q264.6875,175.5781 264,176.6563 Q263.3125,177.7188 263.3125,179.8125 Q263.3125,181.9063 264,182.9844 Q264.6875,184.0469 266.0313,184.0469 Q266.6563,184.0469 267.25,183.7813 Q267.8438,183.5 268.4688,182.9219 L268.4688,185.6406 Z " fill="#000000"/><text fill="#000000" font-family="sans-serif" font-size="14" lengthAdjust="spacing" textLength="159.2158" x="279.5" y="184.8467">FileNotExistsException</text></g><!--class AbstractStorage__class--><g id="elem_AbstractStorage__class"><rect codeLine="21" fill="#F1F1F1" height="40.2656" id="AbstractStorage__class" rx="2.5" ry="2.5" style="stroke:#181818;stroke-width:0.5;" width="145.5449" x="30" y="230"/><ellipse cx="45" cy="250.1328" fill="#ADD1B2" rx="11" ry="11" style="stroke:#181818;stroke-width:1;"/><path d="M47.9688,255.7734 Q47.3906,256.0703 46.75,256.2109 Q46.1094,256.3672 45.4063,256.3672 Q42.9063,256.3672 41.5781,254.7266 Q40.2656,253.0703 40.2656,249.9453 Q40.2656,246.8203 41.5781,245.1641 Q42.9063,243.5078 45.4063,243.5078 Q46.1094,243.5078 46.75,243.6641 Q47.4063,243.8203 47.9688,244.1172 L47.9688,246.8359 Q47.3438,246.2578 46.75,245.9922 Q46.1563,245.7109 45.5313,245.7109 Q44.1875,245.7109 43.5,246.7891 Q42.8125,247.8516 42.8125,249.9453 Q42.8125,252.0391 43.5,253.1172 Q44.1875,254.1797 45.5313,254.1797 Q46.1563,254.1797 46.75,253.9141 Q47.3438,253.6328 47.9688,253.0547 L47.9688,255.7734 Z " fill="#000000"/><text fill="#000000" font-family="sans-serif" font-size="12" font-style="italic" lengthAdjust="spacing" textLength="64.4824" x="83.5313" y="246.1387">&#171;external&#187;</text><text fill="#000000" font-family="sans-serif" font-size="14" lengthAdjust="spacing" textLength="113.5449" x="59" y="261.9639">AbstractStorage</text></g><!--class Closable__class--><g id="elem_Closable__class"><rect codeLine="27" fill="#F1F1F1" height="40.2656" id="Closable__class" rx="2.5" ry="2.5" style="stroke:#181818;stroke-width:0.5;" width="92.4824" x="57" y="288"/><ellipse cx="72" cy="308.1328" fill="#ADD1B2" rx="11" ry="11" style="stroke:#181818;stroke-width:1;"/><path d="M74.9688,313.7734 Q74.3906,314.0703 73.75,314.2109 Q73.1094,314.3672 72.4063,314.3672 Q69.9063,314.3672 68.5781,312.7266 Q67.2656,311.0703 67.2656,307.9453 Q67.2656,304.8203 68.5781,303.1641 Q69.9063,301.5078 72.4063,301.5078 Q73.1094,301.5078 73.75,301.6641 Q74.4063,301.8203 74.9688,302.1172 L74.9688,304.8359 Q74.3438,304.2578 73.75,303.9922 Q73.1563,303.7109 72.5313,303.7109 Q71.1875,303.7109 70.5,304.7891 Q69.8125,305.8516 69.8125,307.9453 Q69.8125,310.0391 70.5,311.1172 Q71.1875,312.1797 72.5313,312.1797 Q73.1563,312.1797 73.75,311.9141 Q74.3438,311.6328 74.9688,311.0547 L74.9688,313.7734 Z " fill="#000000"/><text fill="#000000" font-family="sans-serif" font-size="12" font-style="italic" lengthAdjust="spacing" textLength="64.4824" x="84" y="304.1387">&#171;external&#187;</text><text fill="#000000" font-family="sans-serif" font-size="14" lengthAdjust="spacing" textLength="59.4932" x="86.4946" y="319.9639">Closable</text></g><!--class Loadable__class--><g id="elem_Loadable__class"><rect codeLine="31" fill="#F1F1F1" height="40.2656" id="Loadable__class" rx="2.5" ry="2.5" style="stroke:#181818;stroke-width:0.5;" width="95.7998" x="55" y="346"/><ellipse cx="70" cy="366.1328" fill="#ADD1B2" rx="11" ry="11" style="stroke:#181818;stroke-width:1;"/><path d="M72.9688,371.7734 Q72.3906,372.0703 71.75,372.2109 Q71.1094,372.3672 70.4063,372.3672 Q67.9063,372.3672 66.5781,370.7266 Q65.2656,369.0703 65.2656,365.9453 Q65.2656,362.8203 66.5781,361.1641 Q67.9063,359.5078 70.4063,359.5078 Q71.1094,359.5078 71.75,359.6641 Q72.4063,359.8203 72.9688,360.1172 L72.9688,362.8359 Q72.3438,362.2578 71.75,361.9922 Q71.1563,361.7109 70.5313,361.7109 Q69.1875,361.7109 68.5,362.7891 Q67.8125,363.8516 67.8125,365.9453 Q67.8125,368.0391 68.5,369.1172 Q69.1875,370.1797 70.5313,370.1797 Q71.1563,370.1797 71.75,369.9141 Q72.3438,369.6328 72.9688,369.0547 L72.9688,371.7734 Z " fill="#000000"/><text fill="#000000" font-family="sans-serif" font-size="12" font-style="italic" lengthAdjust="spacing" textLength="64.4824" x="83.6587" y="362.1387">&#171;external&#187;</text><text fill="#000000" font-family="sans-serif" font-size="14" lengthAdjust="spacing" textLength="63.7998" x="84" y="377.9639">Loadable</text></g><!--class Persistable__class--><g id="elem_Persistable__class"><rect codeLine="35" fill="#F1F1F1" height="40.2656" id="Persistable__class" rx="2.5" ry="2.5" style="stroke:#181818;stroke-width:0.5;" width="108.7471" x="48.5" y="404"/><ellipse cx="63.5" cy="424.1328" fill="#ADD1B2" rx="11" ry="11" style="stroke:#181818;stroke-width:1;"/><path d="M66.4688,429.7734 Q65.8906,430.0703 65.25,430.2109 Q64.6094,430.3672 63.9063,430.3672 Q61.4063,430.3672 60.0781,428.7266 Q58.7656,427.0703 58.7656,423.9453 Q58.7656,420.8203 60.0781,419.1641 Q61.4063,417.5078 63.9063,417.5078 Q64.6094,417.5078 65.25,417.6641 Q65.9063,417.8203 66.4688,418.1172 L66.4688,420.8359 Q65.8438,420.2578 65.25,419.9922 Q64.6563,419.7109 64.0313,419.7109 Q62.6875,419.7109 62,420.7891 Q61.3125,421.8516 61.3125,423.9453 Q61.3125,426.0391 62,427.1172 Q62.6875,428.1797 64.0313,428.1797 Q64.6563,428.1797 65.25,427.9141 Q65.8438,427.6328 66.4688,427.0547 L66.4688,429.7734 Z " fill="#000000"/><text fill="#000000" font-family="sans-serif" font-size="12" font-style="italic" lengthAdjust="spacing" textLength="64.4824" x="83.6323" y="420.1387">&#171;external&#187;</text><text fill="#000000" font-family="sans-serif" font-size="14" lengthAdjust="spacing" textLength="76.7471" x="77.5" y="435.9639">Persistable</text></g><!--class InitHook__class--><g id="elem_InitHook__class"><rect codeLine="43" fill="#F1F1F1" height="40.2656" id="InitHook__class" rx="2.5" ry="2.5" style="stroke:#181818;stroke-width:0.5;" width="92.4824" x="57" y="114"/><ellipse cx="72" cy="134.1328" fill="#ADD1B2" rx="11" ry="11" style="stroke:#181818;stroke-width:1;"/><path d="M74.9688,139.7734 Q74.3906,140.0703 73.75,140.2109 Q73.1094,140.3672 72.4063,140.3672 Q69.9063,140.3672 68.5781,138.7266 Q67.2656,137.0703 67.2656,133.9453 Q67.2656,130.8203 68.5781,129.1641 Q69.9063,127.5078 72.4063,127.5078 Q73.1094,127.5078 73.75,127.6641 Q74.4063,127.8203 74.9688,128.1172 L74.9688,130.8359 Q74.3438,130.2578 73.75,129.9922 Q73.1563,129.7109 72.5313,129.7109 Q71.1875,129.7109 70.5,130.7891 Q69.8125,131.8516 69.8125,133.9453 Q69.8125,136.0391 70.5,137.1172 Q71.1875,138.1797 72.5313,138.1797 Q73.1563,138.1797 73.75,137.9141 Q74.3438,137.6328 74.9688,137.0547 L74.9688,139.7734 Z " fill="#000000"/><text fill="#000000" font-family="sans-serif" font-size="12" font-style="italic" lengthAdjust="spacing" textLength="64.4824" x="84" y="130.1387">&#171;external&#187;</text><text fill="#000000" font-family="sans-serif" font-size="14" lengthAdjust="spacing" textLength="58.1465" x="87.168" y="145.9639">InitHook</text></g><!--class DestroyHook__class--><g id="elem_DestroyHook__class"><rect codeLine="47" fill="#F1F1F1" height="40.2656" id="DestroyHook__class" rx="2.5" ry="2.5" style="stroke:#181818;stroke-width:0.5;" width="122.5488" x="41.5" y="172"/><ellipse cx="56.5" cy="192.1328" fill="#ADD1B2" rx="11" ry="11" style="stroke:#181818;stroke-width:1;"/><path d="M59.4688,197.7734 Q58.8906,198.0703 58.25,198.2109 Q57.6094,198.3672 56.9063,198.3672 Q54.4063,198.3672 53.0781,196.7266 Q51.7656,195.0703 51.7656,191.9453 Q51.7656,188.8203 53.0781,187.1641 Q54.4063,185.5078 56.9063,185.5078 Q57.6094,185.5078 58.25,185.6641 Q58.9063,185.8203 59.4688,186.1172 L59.4688,188.8359 Q58.8438,188.2578 58.25,187.9922 Q57.6563,187.7109 57.0313,187.7109 Q55.6875,187.7109 55,188.7891 Q54.3125,189.8516 54.3125,191.9453 Q54.3125,194.0391 55,195.1172 Q55.6875,196.1797 57.0313,196.1797 Q57.6563,196.1797 58.25,195.9141 Q58.8438,195.6328 59.4688,195.0547 L59.4688,197.7734 Z " fill="#000000"/><text fill="#000000" font-family="sans-serif" font-size="12" font-style="italic" lengthAdjust="spacing" textLength="64.4824" x="83.5332" y="188.1387">&#171;external&#187;</text><text fill="#000000" font-family="sans-serif" font-size="14" lengthAdjust="spacing" textLength="90.5488" x="70.5" y="203.9639">DestroyHook</text></g><polygon fill="transparent" points="153.3515,52.0682,167.7655,64.4066,172.2858,53.2906,153.3515,52.0682" style="stroke:#516F42;stroke-width:1;"/><path d="M170.0256,58.8486 C214.9192,77.1041 263.6659,96.9264 305.2734,113.8456 " fill="transparent" style="stroke:#516F42;stroke-width:1;"/><polygon fill="transparent" points="176.3079,259.001,193.4289,267.1785,194.9113,255.2704,176.3079,259.001" style="stroke:#516F42;stroke-width:1;"/><path d="M194.1701,261.2245 C226.1979,265.2114 245.8018,267.6517 277.2794,271.57 " fill="transparent" style="stroke:#516F42;stroke-width:1;"/><polygon fill="transparent" points="155.2684,471.4855,174.1732,469.8698,169.4228,458.8501,155.2684,471.4855" style="stroke:#516F42;stroke-width:1;"/><path d="M171.798,464.36 C181.752,460.069 175.2656,462.0424 184,456 C251.2618,409.4692 310.566,329.9808 334.1576,296.082 " fill="transparent" style="stroke:#516F42;stroke-width:1;stroke-dasharray:7.0,7.0;"/><polygon fill="transparent" points="149.0475,302.7663,167.6197,306.6489,166.2348,294.729,149.0475,302.7663" style="stroke:#516F42;stroke-width:1;"/><path d="M166.9273,300.6889 C203.0305,296.4944 236.3746,292.6204 277.3954,287.8545 " fill="transparent" style="stroke:#516F42;stroke-width:1;stroke-dasharray:7.0,7.0;"/><polygon fill="transparent" points="151.0393,349.2142,170.0088,348.8156,165.9758,337.5136,151.0393,349.2142" style="stroke:#516F42;stroke-width:1;"/><path d="M167.9923,343.1646 C211.142,327.7668 257.6611,311.1666 300.1167,296.0164 " fill="transparent" style="stroke:#516F42;stroke-width:1;stroke-dasharray:7.0,7.0;"/><polygon fill="transparent" points="157.8027,406.7892,176.7507,405.8027,172.3692,394.6312,157.8027,406.7892" style="stroke:#516F42;stroke-width:1;"/><path d="M174.56,400.2169 C183.4907,396.7142 175.7619,399.3309 184,395 C239.0314,366.0691 296.7277,320.5606 325.8108,296.3786 " fill="transparent" style="stroke:#516F42;stroke-width:1;stroke-dasharray:7.0,7.0;"/><polygon fill="transparent" points="149.0119,144.5977,163.9669,156.2746,167.982,144.9662,149.0119,144.5977" style="stroke:#516F42;stroke-width:1;"/><path d="M165.9745,150.6204 C178.1733,154.9517 173.8392,154.8901 184,163 C201.344,176.8431 192.5847,192.6178 211,205 C216.0079,208.3672 221.3476,211.3117 226.9035,213.8842 " fill="transparent" style="stroke:#516F42;stroke-width:1;stroke-dasharray:7.0,7.0;"/><polygon fill="transparent" points="164.5034,201.54,181.3492,210.2703,183.2182,198.4167,164.5034,201.54" style="stroke:#516F42;stroke-width:1;"/><path d="M182.2837,204.3435 C206.1265,208.1029 216.3963,209.7222 243.1839,213.946 " fill="transparent" style="stroke:#516F42;stroke-width:1;stroke-dasharray:7.0,7.0;"/><polygon fill="transparent" points="146.6064,52.2173,158.9594,66.6187,165.1297,56.3266,146.6064,52.2173" style="stroke:#516F42;stroke-width:1;"/><path d="M162.0446,61.4726 C175.4577,69.514 173.9412,70.5869 184,83 C205.5166,109.5525 184.8219,133.0293 211,155 C222.3294,164.5085 236.1139,170.8643 250.4795,175.0401 " fill="transparent" style="stroke:#516F42;stroke-width:1;"/><!--SRC=[jLJ1Jjmm4BtxAwRBjPTMb1D2eW7KIgX2G6-Hq6moIQorFP7jm4Q8Vw-pc-oIr4kN5SrjFEFtdjyRvLDjiTG82bjkF3XD7WqA070BQMgqgE7SMdvAMB65eszVJehZh-C-Pbu-Ijz-PvkJtMSGiqLfkJ5vFroillZmXKJD9jyRV9ZVXyDLcFEJD2KKg1m9iRkrxIXfoBSr0LjViQXaJa2wzYreqdEoJYWgF7W6AylAGouj1MriX2CF1ZMv6ZEwemxE1sbfAaIcq3cOtJR6IqsNoupgxieCqC7qyE5XFNrw2hJqP0qgE3jx5YzY0mutLSqARPecxl5AAheBH5WIF7S60FHqvtekouORzzi4tFlmg37p6_r11AmqcDo5P-mIshE-n1MEfGtAvixR46dVNAiPd-soOQ2I9XmM7TKi2NlWSQxME9lgNKP6PIQAtHQtB_ubR5_mQyPy0puK7mL-4nPLkgqfh-e3ADxSid5pRTNeABPBK_LfkYD-aBfMfCduxjeqsyynf4bGqPc9tz6PY6Vl3-AdaVu7ysBbor1yLCeN53pZTeF_glw_AL_BWf8sKzHHkKZcuu7j1epZ_DlpYKFHN2AlFFnTNUSN-yjbIDgDVu_nre5_nZy0]--></g></svg>