<svg xmlns="http://www.w3.org/2000/svg" xmlns:xlink="http://www.w3.org/1999/xlink" contentStyleType="text/css" data-diagram-type="CLASS" height="316px" preserveAspectRatio="none" style="width:504px;height:316px;background:#FFFFFF;" version="1.1" viewBox="0 0 504 316" width="504px" zoomAndPan="magnify"><defs/><g><!--cluster Phpolar--><g id="cluster_Phpolar"><path d="M16.5,60 L78.5176,60 A3.75,3.75 0 0 1 81.0176,62.5 L88.0176,82.2969 L494.5,82.2969 A2.5,2.5 0 0 1 497,84.7969 L497,259.5 A2.5,2.5 0 0 1 494.5,262 L16.5,262 A2.5,2.5 0 0 1 14,259.5 L14,62.5 A2.5,2.5 0 0 1 16.5,60 " fill="transparent" style="stroke:#000000;stroke-width:1.5;"/><line style="stroke:#000000;stroke-width:1.5;" x1="14" x2="88.0176" y1="82.2969" y2="82.2969"/><text fill="#000000" font-family="sans-serif" font-size="14" font-weight="bold" lengthAdjust="spacing" textLength="61.0176" x="18" y="74.9951">Phpolar</text></g><!--cluster CsvFileStorage--><g id="cluster_CsvFileStorage"><path d="M221.5,87 L341.1514,87 A3.75,3.75 0 0 1 343.6514,89.5 L350.6514,109.2969 L486.5,109.2969 A2.5,2.5 0 0 1 489,111.7969 L489,251.5 A2.5,2.5 0 0 1 486.5,254 L221.5,254 A2.5,2.5 0 0 1 219,251.5 L219,89.5 A2.5,2.5 0 0 1 221.5,87 " fill="transparent" style="stroke:#000000;stroke-width:1.5;"/><line style="stroke:#000000;stroke-width:1.5;" x1="219" x2="350.6514" y1="109.2969" y2="109.2969"/><text fill="#000000" font-family="sans-serif" font-size="14" font-weight="bold" lengthAdjust="spacing" textLength="118.6514" x="223" y="101.9951">CsvFileStorage</text></g><!--cluster Phpolar--><g id="cluster_Phpolar"><path d="M24.5,144 L86.5176,144 A3.75,3.75 0 0 1 89.0176,146.5 L96.0176,166.2969 L197.5,166.2969 A2.5,2.5 0 0 1 200,168.7969 L200,251.5 A2.5,2.5 0 0 1 197.5,254 L24.5,254 A2.5,2.5 0 0 1 22,251.5 L22,146.5 A2.5,2.5 0 0 1 24.5,144 " fill="transparent" style="stroke:#000000;stroke-width:1.5;"/><line style="stroke:#000000;stroke-width:1.5;" x1="22" x2="96.0176" y1="166.2969" y2="166.2969"/><text fill="#000000" font-family="sans-serif" font-size="14" font-weight="bold" lengthAdjust="spacing" textLength="61.0176" x="26" y="158.9951">Phpolar</text></g><!--cluster Storage--><g id="cluster_Storage"><path d="M32.5,171 L95.7617,171 A3.75,3.75 0 0 1 98.2617,173.5 L105.2617,193.2969 L189.5,193.2969 A2.5,2.5 0 0 1 192,195.7969 L192,243.5 A2.5,2.5 0 0 1 189.5,246 L32.5,246 A2.5,2.5 0 0 1 30,243.5 L30,173.5 A2.5,2.5 0 0 1 32.5,171 " fill="transparent" style="stroke:#000000;stroke-width:1.5;"/><line style="stroke:#000000;stroke-width:1.5;" x1="30" x2="105.2617" y1="193.2969" y2="193.2969"/><text fill="#000000" font-family="sans-serif" font-size="14" font-weight="bold" lengthAdjust="spacing" textLength="62.2617" x="34" y="185.9951">Storage</text></g><!--class RuntimeException__class--><g id="elem_RuntimeException__class"><rect codeLine="14" fill="#F1F1F1" height="40.2656" id="RuntimeException__class" rx="2.5" ry="2.5" style="stroke:#181818;stroke-width:0.5;" width="160.249" x="31" y="12"/><ellipse cx="46" cy="32.1328" fill="#ADD1B2" rx="11" ry="11" style="stroke:#181818;stroke-width:1;"/><path d="M48.9688,37.7734 Q48.3906,38.0703 47.75,38.2109 Q47.1094,38.3672 46.4063,38.3672 Q43.9063,38.3672 42.5781,36.7266 Q41.2656,35.0703 41.2656,31.9453 Q41.2656,28.8203 42.5781,27.1641 Q43.9063,25.5078 46.4063,25.5078 Q47.1094,25.5078 47.75,25.6641 Q48.4063,25.8203 48.9688,26.1172 L48.9688,28.8359 Q48.3438,28.2578 47.75,27.9922 Q47.1563,27.7109 46.5313,27.7109 Q45.1875,27.7109 44.5,28.7891 Q43.8125,29.8516 43.8125,31.9453 Q43.8125,34.0391 44.5,35.1172 Q45.1875,36.1797 46.5313,36.1797 Q47.1563,36.1797 47.75,35.9141 Q48.3438,35.6328 48.9688,35.0547 L48.9688,37.7734 Z " fill="#000000"/><text fill="#000000" font-family="sans-serif" font-size="12" font-style="italic" lengthAdjust="spacing" textLength="64.4824" x="91.8833" y="28.1387">&#171;external&#187;</text><text fill="#000000" font-family="sans-serif" font-size="14" lengthAdjust="spacing" textLength="128.249" x="60" y="43.9639">RuntimeException</text></g><!--class Countable__class--><g id="elem_Countable__class"><rect codeLine="24" fill="#F1F1F1" height="40.2656" id="Countable__class" rx="2.5" ry="2.5" style="stroke:#181818;stroke-width:0.5;" width="103.5449" x="59" y="270"/><ellipse cx="74" cy="290.1328" fill="#B4A7E5" rx="11" ry="11" style="stroke:#181818;stroke-width:1;"/><path d="M69.9219,285.8984 L69.9219,283.7422 L77.3125,283.7422 L77.3125,285.8984 L74.8438,285.8984 L74.8438,293.9766 L77.3125,293.9766 L77.3125,296.1328 L69.9219,296.1328 L69.9219,293.9766 L72.3906,293.9766 L72.3906,285.8984 L69.9219,285.8984 Z " fill="#000000"/><text fill="#000000" font-family="sans-serif" font-size="12" font-style="italic" lengthAdjust="spacing" textLength="64.4824" x="91.5313" y="286.1387">&#171;external&#187;</text><text fill="#000000" font-family="sans-serif" font-size="14" font-style="italic" lengthAdjust="spacing" textLength="71.5449" x="88" y="301.9639">Countable</text></g><!--class AmbiguousUnionTypeException__class--><g id="elem_AmbiguousUnionTypeException__class"><rect codeLine="17" fill="#F1F1F1" height="32" id="AmbiguousUnionTypeException__class" rx="2.5" ry="2.5" style="stroke:#181818;stroke-width:0.5;" width="254.4141" x="227" y="164"/><ellipse cx="242" cy="180" fill="#ADD1B2" rx="11" ry="11" style="stroke:#181818;stroke-width:1;"/><path d="M244.9688,185.6406 Q244.3906,185.9375 243.75,186.0781 Q243.1094,186.2344 242.4063,186.2344 Q239.9063,186.2344 238.5781,184.5938 Q237.2656,182.9375 237.2656,179.8125 Q237.2656,176.6875 238.5781,175.0313 Q239.9063,173.375 242.4063,173.375 Q243.1094,173.375 243.75,173.5313 Q244.4063,173.6875 244.9688,173.9844 L244.9688,176.7031 Q244.3438,176.125 243.75,175.8594 Q243.1563,175.5781 242.5313,175.5781 Q241.1875,175.5781 240.5,176.6563 Q239.8125,177.7188 239.8125,179.8125 Q239.8125,181.9063 240.5,182.9844 Q241.1875,184.0469 242.5313,184.0469 Q243.1563,184.0469 243.75,183.7813 Q244.3438,183.5 244.9688,182.9219 L244.9688,185.6406 Z " fill="#000000"/><text fill="#000000" font-family="sans-serif" font-size="14" lengthAdjust="spacing" textLength="222.4141" x="256" y="184.8467">AmbiguousUnionTypeException</text></g><!--class CsvFileStorage__class--><g id="elem_CsvFileStorage__class"><rect codeLine="27" fill="#F1F1F1" height="32" id="CsvFileStorage__class" rx="2.5" ry="2.5" style="stroke:#181818;stroke-width:0.5;" width="136.5762" x="285.5" y="214"/><ellipse cx="300.5" cy="230" fill="#ADD1B2" rx="11" ry="11" style="stroke:#181818;stroke-width:1;"/><path d="M303.4688,235.6406 Q302.8906,235.9375 302.25,236.0781 Q301.6094,236.2344 300.9063,236.2344 Q298.4063,236.2344 297.0781,234.5938 Q295.7656,232.9375 295.7656,229.8125 Q295.7656,226.6875 297.0781,225.0313 Q298.4063,223.375 300.9063,223.375 Q301.6094,223.375 302.25,223.5313 Q302.9063,223.6875 303.4688,223.9844 L303.4688,226.7031 Q302.8438,226.125 302.25,225.8594 Q301.6563,225.5781 301.0313,225.5781 Q299.6875,225.5781 299,226.6563 Q298.3125,227.7188 298.3125,229.8125 Q298.3125,231.9063 299,232.9844 Q299.6875,234.0469 301.0313,234.0469 Q301.6563,234.0469 302.25,233.7813 Q302.8438,233.5 303.4688,232.9219 L303.4688,235.6406 Z " fill="#000000"/><text fill="#000000" font-family="sans-serif" font-size="14" lengthAdjust="spacing" textLength="104.5762" x="314.5" y="234.8467">CsvFileStorage</text></g><!--class FileNotExistsException__class--><g id="elem_FileNotExistsException__class"><rect codeLine="31" fill="#F1F1F1" height="32" id="FileNotExistsException__class" rx="2.5" ry="2.5" style="stroke:#181818;stroke-width:0.5;" width="191.2158" x="258.5" y="114"/><ellipse cx="273.5" cy="130" fill="#ADD1B2" rx="11" ry="11" style="stroke:#181818;stroke-width:1;"/><path d="M276.4688,135.6406 Q275.8906,135.9375 275.25,136.0781 Q274.6094,136.2344 273.9063,136.2344 Q271.4063,136.2344 270.0781,134.5938 Q268.7656,132.9375 268.7656,129.8125 Q268.7656,126.6875 270.0781,125.0313 Q271.4063,123.375 273.9063,123.375 Q274.6094,123.375 275.25,123.5313 Q275.9063,123.6875 276.4688,123.9844 L276.4688,126.7031 Q275.8438,126.125 275.25,125.8594 Q274.6563,125.5781 274.0313,125.5781 Q272.6875,125.5781 272,126.6563 Q271.3125,127.7188 271.3125,129.8125 Q271.3125,131.9063 272,132.9844 Q272.6875,134.0469 274.0313,134.0469 Q274.6563,134.0469 275.25,133.7813 Q275.8438,133.5 276.4688,132.9219 L276.4688,135.6406 Z " fill="#000000"/><text fill="#000000" font-family="sans-serif" font-size="14" lengthAdjust="spacing" textLength="159.2158" x="287.5" y="134.8467">FileNotExistsException</text></g><!--class AbstractStorage__class--><g id="elem_AbstractStorage__class"><rect codeLine="21" fill="#F1F1F1" height="40.2656" id="AbstractStorage__class" rx="2.5" ry="2.5" style="stroke:#181818;stroke-width:0.5;" width="145.5449" x="38" y="198"/><ellipse cx="53" cy="218.1328" fill="#ADD1B2" rx="11" ry="11" style="stroke:#181818;stroke-width:1;"/><path d="M55.9688,223.7734 Q55.3906,224.0703 54.75,224.2109 Q54.1094,224.3672 53.4063,224.3672 Q50.9063,224.3672 49.5781,222.7266 Q48.2656,221.0703 48.2656,217.9453 Q48.2656,214.8203 49.5781,213.1641 Q50.9063,211.5078 53.4063,211.5078 Q54.1094,211.5078 54.75,211.6641 Q55.4063,211.8203 55.9688,212.1172 L55.9688,214.8359 Q55.3438,214.2578 54.75,213.9922 Q54.1563,213.7109 53.5313,213.7109 Q52.1875,213.7109 51.5,214.7891 Q50.8125,215.8516 50.8125,217.9453 Q50.8125,220.0391 51.5,221.1172 Q52.1875,222.1797 53.5313,222.1797 Q54.1563,222.1797 54.75,221.9141 Q55.3438,221.6328 55.9688,221.0547 L55.9688,223.7734 Z " fill="#000000"/><text fill="#000000" font-family="sans-serif" font-size="12" font-style="italic" lengthAdjust="spacing" textLength="64.4824" x="91.5313" y="214.1387">&#171;external&#187;</text><text fill="#000000" font-family="sans-serif" font-size="14" lengthAdjust="spacing" textLength="113.5449" x="67" y="229.9639">AbstractStorage</text></g><polygon fill="transparent" points="123.5679,52.3302,127.8189,70.8215,138.0635,64.5727,123.5679,52.3302" style="stroke:#516F42;stroke-width:1;"/><path d="M132.9412,67.6971 C149.9954,95.6563 175.2704,129.9825 219,155 C224.957,158.408 231.2839,161.3646 237.8205,163.9285 " fill="transparent" style="stroke:#516F42;stroke-width:1;"/><polygon fill="transparent" points="184.3079,221.6004,201.9873,228.4881,202.5841,216.503,184.3079,221.6004" style="stroke:#516F42;stroke-width:1;"/><path d="M202.2857,222.4956 C234.3135,224.0903 253.8018,225.0607 285.2794,226.628 " fill="transparent" style="stroke:#516F42;stroke-width:1;"/><polygon fill="transparent" points="163.1099,277.2755,182.0263,278.7492,179.1272,267.1047,163.1099,277.2755" style="stroke:#516F42;stroke-width:1;"/><path d="M180.5767,272.927 C217.1919,263.8111 249.307,255.8157 288.6242,246.0272 " fill="transparent" style="stroke:#516F42;stroke-width:1;stroke-dasharray:7.0,7.0;"/><polygon fill="transparent" points="161.3515,52.0682,175.7655,64.4066,180.2858,53.2906,161.3515,52.0682" style="stroke:#516F42;stroke-width:1;"/><path d="M178.0256,58.8486 C222.9192,77.1041 271.6659,96.9264 313.2734,113.8456 " fill="transparent" style="stroke:#516F42;stroke-width:1;"/><!--SRC=[hLBBJiCm4BpxAvRo1I3WL5Kg1Ou8KRX5ghR99h7gb-nD7whwxpXjKnH8gWhXKxopdfcTx9NpM6W4XHjRCGHDZ0O508I5D0uzQXXxRrSJgwo7w_kRX_pkjerZod8fUVDeVKR-aaPC5uMtbScEpVd-T3S_ITJMP1UJD_sNQ8GICxkIfe0SLI0X-g5lH4b3l744rdDfHIap0jAEDw19pya7eIXdO0jU5YL39Zr5RzQ8G0m6DGM7AKsffkDeBKc4I1M608Ftoh3KzBnEoTLF1e01VXPdiqFtS0YqPl865On6Mx4J9t9uAvrLw9Da4fOlKj4q2c51iAq303ZAZVLS5fMjmgU9l1zngBRo6Rmn0NiF9WjnZ3wZHzLTjyFJHzjZOt4UsCT_UmGFjjgrlZmQJMbYCQyr1vEu48npTU0vtVulqJPuK6cLkdBhZI99UaO5gPqYJORhzx_cE9ltMVyrychvUIq3X_OoT4D_t8Cl]--></g></svg>