<?xml version="1.0" encoding="UTF-8" standalone="no"?><svg xmlns="http://www.w3.org/2000/svg" xmlns:xlink="http://www.w3.org/1999/xlink" contentScriptType="application/ecmascript" contentStyleType="text/css" height="119px" preserveAspectRatio="none" style="width:471px;height:119px;" version="1.1" viewBox="0 0 471 119" width="471px" zoomAndPan="magnify"><defs/><g><!--MD5=[403cdfcb274070a3f9729a7ab788ec99]
cluster Phpolar\\CsvFileStorage--><polygon fill="#FFFFFF" points="250,24,439,24,446,46.2969,449,46.2969,449,107,250,107,250,24" style="stroke: #000000; stroke-width: 1.5;"/><line style="stroke: #000000; stroke-width: 1.5;" x1="250" x2="446" y1="46.2969" y2="46.2969"/><text fill="#000000" font-family="sans-serif" font-size="14" font-weight="bold" lengthAdjust="spacingAndGlyphs" textLength="183" x="254" y="38.9951">Phpolar\CsvFileStorage</text><!--MD5=[f075466b5a5628840a44b33ab13d7449]
cluster Phpolar\\Phpolar\\Storage--><polygon fill="#FFFFFF" points="14,24,212,24,219,46.2969,222,46.2969,222,107,14,107,14,24" style="stroke: #000000; stroke-width: 1.5;"/><line style="stroke: #000000; stroke-width: 1.5;" x1="14" x2="219" y1="46.2969" y2="46.2969"/><text fill="#000000" font-family="sans-serif" font-size="14" font-weight="bold" lengthAdjust="spacingAndGlyphs" textLength="192" x="18" y="38.9951">Phpolar\Phpolar\Storage</text><!--MD5=[1ac725021974839d147ffe0f4c9bb3c6]
class Phpolar\\CsvFileStorage\\CsvFileStorage--><rect fill="#FEFECE" height="32" id="Phpolar\\CsvFileStorage\\CsvFileStorage" style="stroke: #A80036; stroke-width: 1.5;" width="124" x="287" y="59"/><ellipse cx="302" cy="75" fill="#ADD1B2" rx="11" ry="11" style="stroke: #A80036; stroke-width: 1.0;"/><path d="M304.9688,80.6406 Q304.3906,80.9375 303.75,81.0781 Q303.1094,81.2344 302.4063,81.2344 Q299.9063,81.2344 298.5781,79.5938 Q297.2656,77.9375 297.2656,74.8125 Q297.2656,71.6875 298.5781,70.0313 Q299.9063,68.375 302.4063,68.375 Q303.1094,68.375 303.75,68.5313 Q304.4063,68.6875 304.9688,68.9844 L304.9688,71.7031 Q304.3438,71.125 303.75,70.8594 Q303.1563,70.5781 302.5313,70.5781 Q301.1875,70.5781 300.5,71.6563 Q299.8125,72.7188 299.8125,74.8125 Q299.8125,76.9063 300.5,77.9844 Q301.1875,79.0469 302.5313,79.0469 Q303.1563,79.0469 303.75,78.7813 Q304.3438,78.5 304.9688,77.9219 L304.9688,80.6406 Z "/><text fill="#000000" font-family="sans-serif" font-size="12" lengthAdjust="spacingAndGlyphs" textLength="92" x="316" y="79.1543">CsvFileStorage</text><!--MD5=[8b8e5ab3ddda216173c72732b9c6bf5d]
class Phpolar\\Phpolar\\Storage\\AbstractStorage--><rect fill="#FEFECE" height="32" id="Phpolar\\Phpolar\\Storage\\AbstractStorage" style="stroke: #A80036; stroke-width: 1.5;" width="135" x="50" y="59"/><ellipse cx="65" cy="75" fill="#ADD1B2" rx="11" ry="11" style="stroke: #A80036; stroke-width: 1.0;"/><path d="M67.9688,80.6406 Q67.3906,80.9375 66.75,81.0781 Q66.1094,81.2344 65.4063,81.2344 Q62.9063,81.2344 61.5781,79.5938 Q60.2656,77.9375 60.2656,74.8125 Q60.2656,71.6875 61.5781,70.0313 Q62.9063,68.375 65.4063,68.375 Q66.1094,68.375 66.75,68.5313 Q67.4063,68.6875 67.9688,68.9844 L67.9688,71.7031 Q67.3438,71.125 66.75,70.8594 Q66.1563,70.5781 65.5313,70.5781 Q64.1875,70.5781 63.5,71.6563 Q62.8125,72.7188 62.8125,74.8125 Q62.8125,76.9063 63.5,77.9844 Q64.1875,79.0469 65.5313,79.0469 Q66.1563,79.0469 66.75,78.7813 Q67.3438,78.5 67.9688,77.9219 L67.9688,80.6406 Z "/><text fill="#000000" font-family="sans-serif" font-size="12" lengthAdjust="spacingAndGlyphs" textLength="103" x="79" y="79.1543">AbstractStorage</text><!--MD5=[fd6699ad174f6ffed793c38675ccc7d3]
reverse link Phpolar\\Phpolar\\Storage\\AbstractStorage to Phpolar\\CsvFileStorage\\CsvFileStorage--><path d="M205.08,75 C205.08,75 286.88,75 286.88,75 " fill="none" id="Phpolar\\Phpolar\\Storage\\AbstractStorage&lt;-Phpolar\\CsvFileStorage\\CsvFileStorage" style="stroke: #516F42; stroke-width: 1.0;"/><polygon fill="none" points="205.08,82,185.08,75,205.08,68,205.08,82" style="stroke: #516F42; stroke-width: 1.0;"/><!--MD5=[42e00d04538cb38aee00bf5c79323c07]
@startuml
   skinparam ArrowColor #516f42
   skinparam activityBorderColor #516f42
   skinparam activityBackgroundColor #ffffff
   skinparam activityDiamondBorderColor #516f42
   skinparam activityDiamondBackgroundColor #ffffff
   skinparam shadowing false

skinparam shadowing false
skinparam linetype ortho
hide empty members
left to right direction
set namespaceSeparator \\


class \\Phpolar\\CsvFileStorage\\CsvFileStorage extends \\Phpolar\\Phpolar\\Storage\\AbstractStorage {
}

@enduml

PlantUML version 1.2020.02(Sun Mar 01 04:22:07 CST 2020)
(GPL source distribution)
Java Runtime: OpenJDK Runtime Environment
JVM: OpenJDK 64-Bit Server VM
Java Version: 11.0.17+8-post-Ubuntu-1ubuntu222.04
Operating System: Linux
Default Encoding: UTF-8
Language: en
Country: US
--></g></svg>
