<?xml version="1.0" encoding="UTF-8" standalone="no"?>
<!DOCTYPE svg PUBLIC "-//W3C//DTD SVG 1.1//EN"
 "http://www.w3.org/Graphics/SVG/1.1/DTD/svg11.dtd">
<!-- Generated by graphviz version 2.42.4 (0)
 -->
<!-- Title: G Pages: 1 -->
<svg width="535pt" height="292pt"
 viewBox="0.00 0.00 534.93 292.00" xmlns="http://www.w3.org/2000/svg" xmlns:xlink="http://www.w3.org/1999/xlink">
<g id="graph0" class="graph" transform="scale(1 1) rotate(0) translate(4 288)">
<title>G</title>
<polygon fill="white" stroke="transparent" points="-4,4 -4,-288 530.93,-288 530.93,4 -4,4"/>
<g id="clust1" class="cluster">
<title>cluster_Global</title>
<polygon fill="none" stroke="black" points="8,-8 8,-276 518.93,-276 518.93,-8 8,-8"/>
<text text-anchor="middle" x="263.47" y="-263.2" font-family="Times,serif" font-size="11.00" fill="gray">Global</text>
</g>
<g id="clust2" class="cluster">
<title>cluster_\Phpolar</title>
<polygon fill="none" stroke="black" points="279.93,-16 279.93,-232 510.93,-232 510.93,-16 279.93,-16"/>
<text text-anchor="middle" x="395.43" y="-219.2" font-family="Times,serif" font-size="11.00" fill="gray">Phpolar</text>
</g>
<g id="clust3" class="cluster">
<title>cluster_\Phpolar\CsvFileStorage</title>
<polygon fill="none" stroke="black" points="287.93,-24 287.93,-204 502.93,-204 502.93,-24 287.93,-24"/>
<text text-anchor="middle" x="395.43" y="-191.2" font-family="Times,serif" font-size="11.00" fill="gray">CsvFileStorage</text>
</g>
<g id="clust4" class="cluster">
<title>cluster_Global\Phpolar</title>
<polygon fill="none" stroke="black" points="16,-60 16,-204 238.18,-204 238.18,-60 16,-60"/>
<text text-anchor="middle" x="127.09" y="-191.2" font-family="Times,serif" font-size="11.00" fill="gray">Phpolar</text>
</g>
<g id="clust5" class="cluster">
<title>cluster_Global\Phpolar\Phpolar</title>
<polygon fill="none" stroke="black" points="24,-68 24,-176 230.18,-176 230.18,-68 24,-68"/>
<text text-anchor="middle" x="127.09" y="-163.2" font-family="Times,serif" font-size="11.00" fill="gray">Phpolar</text>
</g>
<g id="clust6" class="cluster">
<title>cluster_Global\Phpolar\Phpolar\Storage</title>
<polygon fill="none" stroke="black" points="32,-76 32,-148 222.18,-148 222.18,-76 32,-76"/>
<text text-anchor="middle" x="127.09" y="-135.2" font-family="Times,serif" font-size="11.00" fill="gray">Storage</text>
</g>
<!-- \\Phpolar\\CsvFileStorage\\AmbiguousUnionTypeException -->
<g id="node1" class="node">
<title>\\Phpolar\\CsvFileStorage\\AmbiguousUnionTypeException</title>
<polygon fill="none" stroke="black" points="494.93,-122 295.93,-122 295.93,-86 494.93,-86 494.93,-122"/>
<text text-anchor="middle" x="395.43" y="-101.2" font-family="Courier,monospace" font-size="11.00">AmbiguousUnionTypeException</text>
</g>
<!-- RuntimeException -->
<g id="node5" class="node">
<title>RuntimeException</title>
<ellipse fill="none" stroke="black" cx="127.09" cy="-34" rx="96.68" ry="18"/>
<text text-anchor="middle" x="127.09" y="-30.3" font-family="Times,serif" font-size="14.00" fill="gray">RuntimeException</text>
</g>
<!-- \\Phpolar\\CsvFileStorage\\AmbiguousUnionTypeException&#45;&gt;RuntimeException -->
<g id="edge1" class="edge">
<title>\\Phpolar\\CsvFileStorage\\AmbiguousUnionTypeException&#45;&gt;RuntimeException</title>
<path fill="none" stroke="black" d="M315.79,-85.94C303.76,-83.04 291.5,-80 279.93,-77 250.05,-69.25 217.07,-59.99 189.49,-52.06"/>
<polygon fill="none" stroke="black" points="190.17,-48.61 179.59,-49.2 188.23,-55.34 190.17,-48.61"/>
</g>
<!-- \\Phpolar\\CsvFileStorage\\CsvFileStorage -->
<g id="node2" class="node">
<title>\\Phpolar\\CsvFileStorage\\CsvFileStorage</title>
<polygon fill="none" stroke="black" points="450.93,-176 339.93,-176 339.93,-140 450.93,-140 450.93,-176"/>
<text text-anchor="middle" x="395.43" y="-155.2" font-family="Courier,monospace" font-size="11.00">CsvFileStorage</text>
</g>
<!-- AbstractStorage -->
<g id="node4" class="node">
<title>AbstractStorage</title>
<ellipse fill="none" stroke="black" cx="127.09" cy="-102" rx="87.18" ry="18"/>
<text text-anchor="middle" x="127.09" y="-98.3" font-family="Times,serif" font-size="14.00" fill="gray">AbstractStorage</text>
</g>
<!-- \\Phpolar\\CsvFileStorage\\CsvFileStorage&#45;&gt;AbstractStorage -->
<g id="edge2" class="edge">
<title>\\Phpolar\\CsvFileStorage\\CsvFileStorage&#45;&gt;AbstractStorage</title>
<path fill="none" stroke="black" d="M339.89,-145.89C309.9,-139.3 272.02,-131.06 238.18,-124 226.06,-121.47 213.18,-118.84 200.66,-116.32"/>
<polygon fill="none" stroke="black" points="201.21,-112.86 190.72,-114.32 199.83,-119.72 201.21,-112.86"/>
</g>
<!-- Countable -->
<g id="node6" class="node">
<title>Countable</title>
<ellipse fill="none" stroke="black" cx="127.09" cy="-230" rx="57.69" ry="18"/>
<text text-anchor="middle" x="127.09" y="-226.3" font-family="Times,serif" font-size="14.00" fill="gray">Countable</text>
</g>
<!-- \\Phpolar\\CsvFileStorage\\CsvFileStorage&#45;&gt;Countable -->
<g id="edge3" class="edge">
<title>\\Phpolar\\CsvFileStorage\\CsvFileStorage&#45;&gt;Countable</title>
<path fill="none" stroke="black" stroke-dasharray="1,5" d="M339.89,-172.74C293.53,-185.28 227.35,-203.17 181.36,-215.6"/>
<polygon fill="none" stroke="black" points="180.31,-212.26 171.57,-218.25 182.14,-219.01 180.31,-212.26"/>
</g>
<!-- \\Phpolar\\CsvFileStorage\\FileNotExistsException -->
<g id="node3" class="node">
<title>\\Phpolar\\CsvFileStorage\\FileNotExistsException</title>
<polygon fill="none" stroke="black" points="477.93,-68 312.93,-68 312.93,-32 477.93,-32 477.93,-68"/>
<text text-anchor="middle" x="395.43" y="-47.2" font-family="Courier,monospace" font-size="11.00">FileNotExistsException</text>
</g>
<!-- \\Phpolar\\CsvFileStorage\\FileNotExistsException&#45;&gt;RuntimeException -->
<g id="edge4" class="edge">
<title>\\Phpolar\\CsvFileStorage\\FileNotExistsException&#45;&gt;RuntimeException</title>
<path fill="none" stroke="black" d="M312.71,-45.09C286.43,-43.51 256.98,-41.74 229.46,-40.09"/>
<polygon fill="none" stroke="black" points="229.61,-36.59 219.42,-39.49 229.19,-43.58 229.61,-36.59"/>
</g>
</g>
</svg>
