<svg xmlns="http://www.w3.org/2000/svg" xmlns:xlink="http://www.w3.org/1999/xlink" contentStyleType="text/css" data-diagram-type="CLASS" height="480px" preserveAspectRatio="none" style="width:669px;height:480px;background:#FFFFFF;" version="1.1" viewBox="0 0 669 480" width="669px" zoomAndPan="magnify"><defs/><g><!--cluster Phpolar--><g id="cluster_Phpolar"><path d="M16.5,60 L78.5176,60 A3.75,3.75 0 0 1 81.0176,62.5 L88.0176,82.2969 L659.5,82.2969 A2.5,2.5 0 0 1 662,84.7969 L662,421.5 A2.5,2.5 0 0 1 659.5,424 L16.5,424 A2.5,2.5 0 0 1 14,421.5 L14,62.5 A2.5,2.5 0 0 1 16.5,60 " fill="transparent" style="stroke:#000000;stroke-width:1.5;"/><line style="stroke:#000000;stroke-width:1.5;" x1="14" x2="88.0176" y1="82.2969" y2="82.2969"/><text fill="#000000" font-family="sans-serif" font-size="14" font-weight="bold" lengthAdjust="spacing" textLength="61.0176" x="18" y="74.9951">Phpolar</text></g><!--cluster CsvFileStorage--><g id="cluster_CsvFileStorage"><path d="M213.5,87 L333.1514,87 A3.75,3.75 0 0 1 335.6514,89.5 L342.6514,109.2969 L651.5,109.2969 A2.5,2.5 0 0 1 654,111.7969 L654,401.5 A2.5,2.5 0 0 1 651.5,404 L213.5,404 A2.5,2.5 0 0 1 211,401.5 L211,89.5 A2.5,2.5 0 0 1 213.5,87 " fill="transparent" style="stroke:#000000;stroke-width:1.5;"/><line style="stroke:#000000;stroke-width:1.5;" x1="211" x2="342.6514" y1="109.2969" y2="109.2969"/><text fill="#000000" font-family="sans-serif" font-size="14" font-weight="bold" lengthAdjust="spacing" textLength="118.6514" x="215" y="101.9951">CsvFileStorage</text></g><!--cluster Storage--><g id="cluster_Storage"><path d="M24.5,283 L87.7617,283 A3.75,3.75 0 0 1 90.2617,285.5 L97.2617,305.2969 L181.5,305.2969 A2.5,2.5 0 0 1 184,307.7969 L184,413.5 A2.5,2.5 0 0 1 181.5,416 L24.5,416 A2.5,2.5 0 0 1 22,413.5 L22,285.5 A2.5,2.5 0 0 1 24.5,283 " fill="transparent" style="stroke:#000000;stroke-width:1.5;"/><line style="stroke:#000000;stroke-width:1.5;" x1="22" x2="97.2617" y1="305.2969" y2="305.2969"/><text fill="#000000" font-family="sans-serif" font-size="14" font-weight="bold" lengthAdjust="spacing" textLength="62.2617" x="26" y="297.9951">Storage</text></g><!--class RuntimeException__class--><g id="elem_RuntimeException__class"><rect codeLine="14" fill="#F1F1F1" height="40.2656" id="RuntimeException__class" rx="2.5" ry="2.5" style="stroke:#181818;stroke-width:0.5;" width="160.249" x="23" y="12"/><ellipse cx="38" cy="32.1328" fill="#ADD1B2" rx="11" ry="11" style="stroke:#181818;stroke-width:1;"/><path d="M40.9688,37.7734 Q40.3906,38.0703 39.75,38.2109 Q39.1094,38.3672 38.4063,38.3672 Q35.9063,38.3672 34.5781,36.7266 Q33.2656,35.0703 33.2656,31.9453 Q33.2656,28.8203 34.5781,27.1641 Q35.9063,25.5078 38.4063,25.5078 Q39.1094,25.5078 39.75,25.6641 Q40.4063,25.8203 40.9688,26.1172 L40.9688,28.8359 Q40.3438,28.2578 39.75,27.9922 Q39.1563,27.7109 38.5313,27.7109 Q37.1875,27.7109 36.5,28.7891 Q35.8125,29.8516 35.8125,31.9453 Q35.8125,34.0391 36.5,35.1172 Q37.1875,36.1797 38.5313,36.1797 Q39.1563,36.1797 39.75,35.9141 Q40.3438,35.6328 40.9688,35.0547 L40.9688,37.7734 Z " fill="#000000"/><text fill="#000000" font-family="sans-serif" font-size="12" font-style="italic" lengthAdjust="spacing" textLength="64.4824" x="83.8833" y="28.1387">&#171;external&#187;</text><text fill="#000000" font-family="sans-serif" font-size="14" lengthAdjust="spacing" textLength="128.249" x="52" y="43.9639">RuntimeException</text></g><!--class Countable__class--><g id="elem_Countable__class"><rect codeLine="24" fill="#F1F1F1" height="40.2656" id="Countable__class" rx="2.5" ry="2.5" style="stroke:#181818;stroke-width:0.5;" width="103.5449" x="294" y="434"/><ellipse cx="309" cy="454.1328" fill="#B4A7E5" rx="11" ry="11" style="stroke:#181818;stroke-width:1;"/><path d="M304.9219,449.8984 L304.9219,447.7422 L312.3125,447.7422 L312.3125,449.8984 L309.8438,449.8984 L309.8438,457.9766 L312.3125,457.9766 L312.3125,460.1328 L304.9219,460.1328 L304.9219,457.9766 L307.3906,457.9766 L307.3906,449.8984 L304.9219,449.8984 Z " fill="#000000"/><text fill="#000000" font-family="sans-serif" font-size="12" font-style="italic" lengthAdjust="spacing" textLength="64.4824" x="326.5313" y="450.1387">&#171;external&#187;</text><text fill="#000000" font-family="sans-serif" font-size="14" font-style="italic" lengthAdjust="spacing" textLength="71.5449" x="323" y="465.9639">Countable</text></g><!--class AmbiguousUnionTypeException__class--><g id="elem_AmbiguousUnionTypeException__class"><rect codeLine="17" fill="#F1F1F1" height="32" id="AmbiguousUnionTypeException__class" rx="2.5" ry="2.5" style="stroke:#181818;stroke-width:0.5;" width="254.4141" x="219" y="114"/><ellipse cx="234" cy="130" fill="#ADD1B2" rx="11" ry="11" style="stroke:#181818;stroke-width:1;"/><path d="M236.9688,135.6406 Q236.3906,135.9375 235.75,136.0781 Q235.1094,136.2344 234.4063,136.2344 Q231.9063,136.2344 230.5781,134.5938 Q229.2656,132.9375 229.2656,129.8125 Q229.2656,126.6875 230.5781,125.0313 Q231.9063,123.375 234.4063,123.375 Q235.1094,123.375 235.75,123.5313 Q236.4063,123.6875 236.9688,123.9844 L236.9688,126.7031 Q236.3438,126.125 235.75,125.8594 Q235.1563,125.5781 234.5313,125.5781 Q233.1875,125.5781 232.5,126.6563 Q231.8125,127.7188 231.8125,129.8125 Q231.8125,131.9063 232.5,132.9844 Q233.1875,134.0469 234.5313,134.0469 Q235.1563,134.0469 235.75,133.7813 Q236.3438,133.5 236.9688,132.9219 L236.9688,135.6406 Z " fill="#000000"/><text fill="#000000" font-family="sans-serif" font-size="14" lengthAdjust="spacing" textLength="222.4141" x="248" y="134.8467">AmbiguousUnionTypeException</text></g><!--class Closable__interface--><g id="elem_Closable__interface"><rect codeLine="27" fill="#F1F1F1" height="32" id="Closable__interface" rx="2.5" ry="2.5" style="stroke:#181818;stroke-width:0.5;" width="91.4932" x="300.5" y="164"/><ellipse cx="315.5" cy="180" fill="#B4A7E5" rx="11" ry="11" style="stroke:#181818;stroke-width:1;"/><path d="M311.4219,175.7656 L311.4219,173.6094 L318.8125,173.6094 L318.8125,175.7656 L316.3438,175.7656 L316.3438,183.8438 L318.8125,183.8438 L318.8125,186 L311.4219,186 L311.4219,183.8438 L313.8906,183.8438 L313.8906,175.7656 L311.4219,175.7656 Z " fill="#000000"/><text fill="#000000" font-family="sans-serif" font-size="14" font-style="italic" lengthAdjust="spacing" textLength="59.4932" x="329.5" y="184.8467">Closable</text></g><!--class Loadable__interface--><g id="elem_Loadable__interface"><rect codeLine="31" fill="#F1F1F1" height="32" id="Loadable__interface" rx="2.5" ry="2.5" style="stroke:#181818;stroke-width:0.5;" width="95.7998" x="298" y="214"/><ellipse cx="313" cy="230" fill="#B4A7E5" rx="11" ry="11" style="stroke:#181818;stroke-width:1;"/><path d="M308.9219,225.7656 L308.9219,223.6094 L316.3125,223.6094 L316.3125,225.7656 L313.8438,225.7656 L313.8438,233.8438 L316.3125,233.8438 L316.3125,236 L308.9219,236 L308.9219,233.8438 L311.3906,233.8438 L311.3906,225.7656 L308.9219,225.7656 Z " fill="#000000"/><text fill="#000000" font-family="sans-serif" font-size="14" font-style="italic" lengthAdjust="spacing" textLength="63.7998" x="327" y="234.8467">Loadable</text></g><!--class Persistable__interface--><g id="elem_Persistable__interface"><rect codeLine="35" fill="#F1F1F1" height="32" id="Persistable__interface" rx="2.5" ry="2.5" style="stroke:#181818;stroke-width:0.5;" width="108.7471" x="291.5" y="264"/><ellipse cx="306.5" cy="280" fill="#B4A7E5" rx="11" ry="11" style="stroke:#181818;stroke-width:1;"/><path d="M302.4219,275.7656 L302.4219,273.6094 L309.8125,273.6094 L309.8125,275.7656 L307.3438,275.7656 L307.3438,283.8438 L309.8125,283.8438 L309.8125,286 L302.4219,286 L302.4219,283.8438 L304.8906,283.8438 L304.8906,275.7656 L302.4219,275.7656 Z " fill="#000000"/><text fill="#000000" font-family="sans-serif" font-size="14" font-style="italic" lengthAdjust="spacing" textLength="76.7471" x="320.5" y="284.8467">Persistable</text></g><!--class CsvFileStorage__class--><g id="elem_CsvFileStorage__class"><rect codeLine="39" fill="#F1F1F1" height="32" id="CsvFileStorage__class" rx="2.5" ry="2.5" style="stroke:#181818;stroke-width:0.5;" width="136.5762" x="509" y="264"/><ellipse cx="524" cy="280" fill="#ADD1B2" rx="11" ry="11" style="stroke:#181818;stroke-width:1;"/><path d="M526.9688,285.6406 Q526.3906,285.9375 525.75,286.0781 Q525.1094,286.2344 524.4063,286.2344 Q521.9063,286.2344 520.5781,284.5938 Q519.2656,282.9375 519.2656,279.8125 Q519.2656,276.6875 520.5781,275.0313 Q521.9063,273.375 524.4063,273.375 Q525.1094,273.375 525.75,273.5313 Q526.4063,273.6875 526.9688,273.9844 L526.9688,276.7031 Q526.3438,276.125 525.75,275.8594 Q525.1563,275.5781 524.5313,275.5781 Q523.1875,275.5781 522.5,276.6563 Q521.8125,277.7188 521.8125,279.8125 Q521.8125,281.9063 522.5,282.9844 Q523.1875,284.0469 524.5313,284.0469 Q525.1563,284.0469 525.75,283.7813 Q526.3438,283.5 526.9688,282.9219 L526.9688,285.6406 Z " fill="#000000"/><text fill="#000000" font-family="sans-serif" font-size="14" lengthAdjust="spacing" textLength="104.5762" x="538" y="284.8467">CsvFileStorage</text></g><!--class CsvFileStorageLifeCycleHooks__class--><g id="elem_CsvFileStorageLifeCycleHooks__class"><rect codeLine="47" fill="#F1F1F1" height="32" id="CsvFileStorageLifeCycleHooks__class" rx="2.5" ry="2.5" style="stroke:#181818;stroke-width:0.5;" width="243.1279" x="224.5" y="364"/><ellipse cx="239.5" cy="380" fill="#ADD1B2" rx="11" ry="11" style="stroke:#181818;stroke-width:1;"/><path d="M242.4688,385.6406 Q241.8906,385.9375 241.25,386.0781 Q240.6094,386.2344 239.9063,386.2344 Q237.4063,386.2344 236.0781,384.5938 Q234.7656,382.9375 234.7656,379.8125 Q234.7656,376.6875 236.0781,375.0313 Q237.4063,373.375 239.9063,373.375 Q240.6094,373.375 241.25,373.5313 Q241.9063,373.6875 242.4688,373.9844 L242.4688,376.7031 Q241.8438,376.125 241.25,375.8594 Q240.6563,375.5781 240.0313,375.5781 Q238.6875,375.5781 238,376.6563 Q237.3125,377.7188 237.3125,379.8125 Q237.3125,381.9063 238,382.9844 Q238.6875,384.0469 240.0313,384.0469 Q240.6563,384.0469 241.25,383.7813 Q241.8438,383.5 242.4688,382.9219 L242.4688,385.6406 Z " fill="#000000"/><text fill="#000000" font-family="sans-serif" font-size="14" lengthAdjust="spacing" textLength="211.1279" x="253.5" y="384.8467">CsvFileStorageLifeCycleHooks</text></g><!--class FileNotExistsException__class--><g id="elem_FileNotExistsException__class"><rect codeLine="51" fill="#F1F1F1" height="32" id="FileNotExistsException__class" rx="2.5" ry="2.5" style="stroke:#181818;stroke-width:0.5;" width="191.2158" x="250.5" y="314"/><ellipse cx="265.5" cy="330" fill="#ADD1B2" rx="11" ry="11" style="stroke:#181818;stroke-width:1;"/><path d="M268.4688,335.6406 Q267.8906,335.9375 267.25,336.0781 Q266.6094,336.2344 265.9063,336.2344 Q263.4063,336.2344 262.0781,334.5938 Q260.7656,332.9375 260.7656,329.8125 Q260.7656,326.6875 262.0781,325.0313 Q263.4063,323.375 265.9063,323.375 Q266.6094,323.375 267.25,323.5313 Q267.9063,323.6875 268.4688,323.9844 L268.4688,326.7031 Q267.8438,326.125 267.25,325.8594 Q266.6563,325.5781 266.0313,325.5781 Q264.6875,325.5781 264,326.6563 Q263.3125,327.7188 263.3125,329.8125 Q263.3125,331.9063 264,332.9844 Q264.6875,334.0469 266.0313,334.0469 Q266.6563,334.0469 267.25,333.7813 Q267.8438,333.5 268.4688,332.9219 L268.4688,335.6406 Z " fill="#000000"/><text fill="#000000" font-family="sans-serif" font-size="14" lengthAdjust="spacing" textLength="159.2158" x="279.5" y="334.8467">FileNotExistsException</text></g><!--class AbstractStorage__class--><g id="elem_AbstractStorage__class"><rect codeLine="21" fill="#F1F1F1" height="40.2656" id="AbstractStorage__class" rx="2.5" ry="2.5" style="stroke:#181818;stroke-width:0.5;" width="145.5449" x="30" y="368"/><ellipse cx="45" cy="388.1328" fill="#ADD1B2" rx="11" ry="11" style="stroke:#181818;stroke-width:1;"/><path d="M47.9688,393.7734 Q47.3906,394.0703 46.75,394.2109 Q46.1094,394.3672 45.4063,394.3672 Q42.9063,394.3672 41.5781,392.7266 Q40.2656,391.0703 40.2656,387.9453 Q40.2656,384.8203 41.5781,383.1641 Q42.9063,381.5078 45.4063,381.5078 Q46.1094,381.5078 46.75,381.6641 Q47.4063,381.8203 47.9688,382.1172 L47.9688,384.8359 Q47.3438,384.2578 46.75,383.9922 Q46.1563,383.7109 45.5313,383.7109 Q44.1875,383.7109 43.5,384.7891 Q42.8125,385.8516 42.8125,387.9453 Q42.8125,390.0391 43.5,391.1172 Q44.1875,392.1797 45.5313,392.1797 Q46.1563,392.1797 46.75,391.9141 Q47.3438,391.6328 47.9688,391.0547 L47.9688,393.7734 Z " fill="#000000"/><text fill="#000000" font-family="sans-serif" font-size="12" font-style="italic" lengthAdjust="spacing" textLength="64.4824" x="83.5313" y="384.1387">&#171;external&#187;</text><text fill="#000000" font-family="sans-serif" font-size="14" lengthAdjust="spacing" textLength="113.5449" x="59" y="399.9639">AbstractStorage</text></g><!--class LifeCycleHooks__class--><g id="elem_LifeCycleHooks__class"><rect codeLine="43" fill="#F1F1F1" height="40.2656" id="LifeCycleHooks__class" rx="2.5" ry="2.5" style="stroke:#181818;stroke-width:0.5;" width="138.5518" x="33.5" y="310"/><ellipse cx="48.5" cy="330.1328" fill="#ADD1B2" rx="11" ry="11" style="stroke:#181818;stroke-width:1;"/><path d="M51.4688,335.7734 Q50.8906,336.0703 50.25,336.2109 Q49.6094,336.3672 48.9063,336.3672 Q46.4063,336.3672 45.0781,334.7266 Q43.7656,333.0703 43.7656,329.9453 Q43.7656,326.8203 45.0781,325.1641 Q46.4063,323.5078 48.9063,323.5078 Q49.6094,323.5078 50.25,323.6641 Q50.9063,323.8203 51.4688,324.1172 L51.4688,326.8359 Q50.8438,326.2578 50.25,325.9922 Q49.6563,325.7109 49.0313,325.7109 Q47.6875,325.7109 47,326.7891 Q46.3125,327.8516 46.3125,329.9453 Q46.3125,332.0391 47,333.1172 Q47.6875,334.1797 49.0313,334.1797 Q49.6563,334.1797 50.25,333.9141 Q50.8438,333.6328 51.4688,333.0547 L51.4688,335.7734 Z " fill="#000000"/><text fill="#000000" font-family="sans-serif" font-size="12" font-style="italic" lengthAdjust="spacing" textLength="64.4824" x="83.5347" y="326.1387">&#171;external&#187;</text><text fill="#000000" font-family="sans-serif" font-size="14" lengthAdjust="spacing" textLength="106.5518" x="62.5" y="341.9639">LifeCycleHooks</text></g><polygon fill="transparent" points="153.3515,52.0682,167.7655,64.4066,172.2858,53.2906,153.3515,52.0682" style="stroke:#516F42;stroke-width:1;"/><path d="M170.0256,58.8486 C214.9192,77.1041 263.6659,96.9264 305.2734,113.8456 " fill="transparent" style="stroke:#516F42;stroke-width:1;"/><polygon fill="transparent" points="176.0485,401.0335,193.0297,409.4975,194.7119,397.616,176.0485,401.0335" style="stroke:#516F42;stroke-width:1;"/><path d="M193.8708,403.5567 C205.5194,405.2059 199.6556,404.1044 211,405 C269.0416,409.582 420.3136,429.7784 473,405 C521.4424,382.2175 554.9903,324.3975 569.0686,296.0983 " fill="transparent" style="stroke:#516F42;stroke-width:1;"/><polygon fill="transparent" points="398.1167,448.1505,416.9263,450.6403,414.6582,438.8566,398.1167,448.1505" style="stroke:#516F42;stroke-width:1;"/><path d="M415.7922,444.7485 C440.097,440.0705 450.9171,435.0713 473,420 C520.6853,387.4554 554.8291,325.5416 569.0935,296.1991 " fill="transparent" style="stroke:#516F42;stroke-width:1;stroke-dasharray:7.0,7.0;"/><polygon fill="transparent" points="391.5523,184.0985,408.5587,192.5116,410.2053,180.6251,391.5523,184.0985" style="stroke:#516F42;stroke-width:1;"/><path d="M409.382,186.5684 C434.1496,189.9994 447.2456,193.7613 473,205 C506.5583,219.6441 539.8539,246.5676 559.2846,263.8581 " fill="transparent" style="stroke:#516F42;stroke-width:1;stroke-dasharray:7.0,7.0;"/><polygon fill="transparent" points="394.0661,238.8619,410.5995,248.1703,412.8779,236.3886,394.0661,238.8619" style="stroke:#516F42;stroke-width:1;"/><path d="M411.7387,242.2795 C435.4604,246.8669 446.9716,249.2768 473,255 C485.638,257.7789 499.103,260.9072 511.998,263.9862 " fill="transparent" style="stroke:#516F42;stroke-width:1;stroke-dasharray:7.0,7.0;"/><polygon fill="transparent" points="400.5179,280,418.5179,286,418.5179,274,400.5179,280" style="stroke:#516F42;stroke-width:1;"/><path d="M418.5179,280 C450.8362,280 474.3187,280 508.891,280 " fill="transparent" style="stroke:#516F42;stroke-width:1;stroke-dasharray:7.0,7.0;"/><polygon fill="transparent" points="172.682,346.5299,188.8803,356.4099,191.5686,344.7149,172.682,346.5299" style="stroke:#516F42;stroke-width:1;"/><path d="M190.2245,350.5624 C202.942,353.4858 198.5848,352.3929 211,355 C225.4751,358.0397 240.8693,361.0853 255.871,363.9527 " fill="transparent" style="stroke:#516F42;stroke-width:1;stroke-dasharray:7.0,7.0;"/><polygon fill="transparent" points="105.4716,52.2702,101.2034,70.7576,113.1495,69.621,105.4716,52.2702" style="stroke:#516F42;stroke-width:1;"/><path d="M107.1764,70.1893 C112.0451,121.3631 130.571,238.5039 211,305 C222.3081,314.3492 235.9986,320.6363 250.2543,324.796 " fill="transparent" style="stroke:#516F42;stroke-width:1;"/><!--SRC=[hLHDRvmm4BtxLqotrrvQjJr5aT9DeXwYAchQ6z9g5WQmrlOWsoIBelptcW3BiW6opORRVFYzvpTZFXGMCusWiEBIWzFaqQ000BUHfa2B6YwivOSbAxRmyTldx-dNByCwnbxUIr_zO9kGFQOHuqrckJH9svm-V-FDbn8rc-HeyAx_60wNOy8FqcIGed8an7IfhoXfo5S50LkViyXbGa2wy1LeqckoJYXAFNW6AxFSGo8j1MriX2CF1ZMv0cEwenhE1sbH94Iiq3bO_2wDbvgkjZ4LzP45e8F3v6hLT9-T0MqzMOCApiyVnPFOWSDjNh126qLBTtyj5Tq58im87ci305gw2xsMMScb-si2xfzmgI7pJBqJ0SyQJEB2DQQ4jgnFumg7qZfbQ-Tj66bRRDGCSrCsT5JIX6HQKosMOGyyhbM3iujEDtAVGx7hATfWjUexvbru3Vw6CTd1Ty7xmT-6lPMkzsWlFf6ac-YmsBWqI8rjrE6IHD744e3KXI9DnjV73YVyQGzfI1hYbwEQQn-nVgvzmiV_Vn0tCgLb5IlwoRnnpHOCKgyzXzFcDK8_rz3FSZYOb_CSF_TssNNb5_khRN3T3VzcuwKt_iZ-0G00]--></g></svg>